<?xml version="1.0" encoding="utf-8"?>
<!-- Generator: Adobe Illustrator 21.1.0, SVG Export Plug-In . SVG Version: 6.00 Build 0)  -->
<svg version="1.1" id="_x30_7932193-1067-453f-8eaf-a5cdaf67bace"
	 xmlns="http://www.w3.org/2000/svg" xmlns:xlink="http://www.w3.org/1999/xlink" x="0px" y="0px" viewBox="0 0 391.7 119.7"
	 style="enable-background:new 0 0 391.7 119.7;" xml:space="preserve">
<style type="text/css">
	.st0{fill:#8A8C8E;}
	.st1{fill:#6D6E71;}
	.st2{fill:#D53847;}
</style>
<title>omed-logo-tag-2</title>
<path class="st0" d="M52.7,100.8l-11-15.5h2.4L53.7,99l9.7-13.8h2.3l-11,15.5v10.2h-1.9V100.8z"/>
<path class="st0" d="M64.6,101.6L64.6,101.6c-0.1-5.4,4.2-9.8,9.5-9.9c0,0,0.1,0,0.1,0c5.3,0,9.6,4.3,9.6,9.6c0,0.1,0,0.1,0,0.2v0.1
	c0.1,5.3-4.2,9.7-9.5,9.8c0,0-0.1,0-0.1,0c-5.3,0-9.6-4.3-9.6-9.6C64.6,101.8,64.6,101.7,64.6,101.6z M81.8,101.6L81.8,101.6
	c0.1-4.4-3.3-8-7.6-8.2c0,0-0.1,0-0.1,0c-4.3,0-7.7,3.5-7.6,7.8c0,0.1,0,0.1,0,0.2v0.1c-0.1,4.3,3.3,8,7.6,8.1c0,0,0.1,0,0.1,0
	c4.3,0,7.7-3.5,7.6-7.8C81.9,101.8,81.8,101.7,81.8,101.6z"/>
<path class="st0" d="M89,103.7V92.2h1.8v11.1c0,3.8,2.2,6.4,5.9,6.4c3.5,0,6.5-2.8,6.5-6.3c0-0.1,0-0.2,0-0.3V92.2h1.8v18.7h-1.8
	v-3.5c-1.3,2.5-3.9,4-6.8,3.9C91.7,111.3,89,108.1,89,103.7z"/>
<path class="st0" d="M124.7,106.9v4h-1.8V84.1h1.8v12.3c1.6-2.5,4-4.6,7.7-4.6c4.5,0,9.1,3.6,9.1,9.7v0.1c0,6.1-4.6,9.8-9.1,9.8
	C129.2,111.3,126.3,109.6,124.7,106.9z M139.5,101.6L139.5,101.6c0-5-3.4-8.2-7.3-8.2c-4.3,0.1-7.7,3.7-7.6,8v0.1
	c-0.1,4.3,3.3,7.9,7.6,8c0,0,0,0,0,0C136.3,109.6,139.5,106.7,139.5,101.6L139.5,101.6z"/>
<path class="st0" d="M145.8,101.6L145.8,101.6c0-5.5,3.8-9.8,8.9-9.8c5.2,0,8.6,4.3,8.6,9.8c0,0.2,0,0.5,0,0.7h-15.6
	c0.3,4.7,3.7,7.4,7.3,7.4c2.5,0,4.8-1.1,6.4-2.9l1.2,1.1c-1.9,2.3-4.8,3.6-7.8,3.5C150.1,111.3,145.8,107.4,145.8,101.6z
	 M161.3,100.7c-0.3-3.8-2.4-7.3-6.7-7.3c-3.7,0-6.6,3.1-6.9,7.3H161.3z"/>
<path class="st0" d="M168.9,84.1h1.8v26.8h-1.8L168.9,84.1z"/>
<path class="st0" d="M176.4,101.6L176.4,101.6c-0.1-5.4,4.2-9.8,9.5-9.9c0,0,0.1,0,0.1,0c5.3,0,9.6,4.3,9.6,9.6c0,0.1,0,0.1,0,0.2
	v0.1c0.1,5.3-4.2,9.7-9.5,9.8c0,0-0.1,0-0.1,0c-5.3,0-9.6-4.3-9.6-9.6C176.4,101.8,176.4,101.7,176.4,101.6z M193.7,101.6
	L193.7,101.6c0.1-4.4-3.3-8-7.6-8.2c0,0-0.1,0-0.1,0c-4.3,0-7.7,3.5-7.6,7.8c0,0.1,0,0.1,0,0.2v0.1c-0.1,4.3,3.3,8,7.6,8.1
	c0,0,0.1,0,0.1,0c4.3,0,7.7-3.5,7.7-7.8C193.7,101.8,193.7,101.7,193.7,101.6L193.7,101.6z"/>
<path class="st0" d="M201,92.2h1.8v3.5c1.3-2.5,3.9-4,6.8-3.9c4.7,0,7.5,3.2,7.5,7.7v11.5h-1.8V99.8c0-3.8-2.2-6.4-5.9-6.4
	c-3.5,0-6.5,2.8-6.5,6.3c0,0.1,0,0.2,0,0.3v10.8H201V92.2z"/>
<path class="st0" d="M223.2,114l1.1-1.5c2.2,1.7,4.8,2.6,7.6,2.6c4.3,0,7.3-2.5,7.3-7.3v-2.7c-1.7,2.7-4.6,4.3-7.8,4.3
	c-4.9,0.1-8.9-3.8-9-8.7c0,0,0,0,0-0.1v-0.1c0-4.9,4-8.9,8.9-8.9c0,0,0,0,0.1,0c3.1,0,6.1,1.6,7.8,4.2v-3.8h1.8V108
	c0.1,2.4-0.8,4.6-2.4,6.3c-1.8,1.7-4.3,2.6-6.8,2.5C228.7,116.9,225.6,115.9,223.2,114z M239.3,100.7L239.3,100.7
	c0-4.4-3.9-7.2-7.8-7.2c-3.8-0.2-7.1,2.8-7.2,6.6c0,0.2,0,0.3,0,0.5v0.1c0,3.9,3.1,7.1,7.1,7.2c0.1,0,0.1,0,0.2,0
	C235.4,107.8,239.3,104.9,239.3,100.7z"/>
<path class="st0" d="M247,107.8h2.4v3.1H247V107.8z"/>
<path class="st0" d="M263.6,85.2h1.9v11.9H282V85.2h1.9v25.7H282v-12h-16.5v12h-1.9V85.2z"/>
<path class="st0" d="M289.8,101.6L289.8,101.6c0-5.5,3.8-9.8,8.9-9.8c5.2,0,8.6,4.3,8.6,9.8c0,0.2,0,0.5,0,0.7h-15.6
	c0.3,4.7,3.7,7.4,7.3,7.4c2.5,0,4.8-1.1,6.4-2.9l1.2,1.1c-1.9,2.3-4.8,3.6-7.8,3.5C294.1,111.3,289.8,107.4,289.8,101.6z
	 M305.3,100.7c-0.3-3.8-2.4-7.3-6.7-7.3c-3.7,0-6.6,3.1-6.9,7.3H305.3z"/>
<path class="st0" d="M312.5,92.2h1.8v5.3c1.3-3.4,4.6-5.6,8.3-5.6v2h-0.2c-4.3,0-8.1,3.3-8.1,9.4v7.7h-1.8L312.5,92.2z"/>
<path class="st0" d="M325.1,101.6L325.1,101.6c0-5.5,3.8-9.8,8.9-9.8c5.2,0,8.6,4.3,8.6,9.8c0,0.2,0,0.5,0,0.7h-15.6
	c0.3,4.7,3.7,7.4,7.3,7.4c2.5,0,4.8-1.1,6.4-2.9l1.2,1.1c-1.9,2.3-4.8,3.6-7.8,3.5C329.4,111.3,325.1,107.4,325.1,101.6z
	 M340.7,100.7c-0.3-3.8-2.4-7.3-6.7-7.3c-3.7,0-6.6,3.1-6.9,7.3H340.7z"/>
<path class="st0" d="M347,107.8h2.4v3.1H347V107.8z"/>
<path class="st1" d="M308.7,22.3l-10.5,2.3l-3.9-15.9l19.2-5.2h16.3v64.9h-21.2V22.3z"/>
<path class="st1" d="M365.5,21.6h-29.4V3.9H389v16.2l-28,48.3h-23.4L365.5,21.6z"/>
<path class="st1" d="M76.1,4h22.6l13.8,22.7L126.4,4h22.5v64.7h-21.5v-32l-14.9,23h-0.4l-14.9-23v32H76.1V4z M212.9,68.7h24
	c26.1,0,39.3-13.6,39.3-32.7v-0.2c0-19.1-12.8-31.8-38.5-31.8h-24.7V68.7z M234.5,49.8v-27h3.6c9.9,0,16.3,4.1,16.3,13.4v0.2
	c0,9.3-6.4,13.4-16.3,13.4L234.5,49.8z M208.7,21.8V4h-55.1v64.7h55.1V50.9h-37.4v-7h31.9V28.3h-31.9v-6.6H208.7z M282.7,4.5
	c-1.4-0.6-3-0.6-4.5,0c-0.7,0.3-1.3,0.7-1.8,1.2c-0.5,0.5-0.9,1.1-1.2,1.8c-0.6,1.4-0.6,3,0,4.4c0.6,1.4,1.6,2.4,3,3
	c1.4,0.6,3,0.6,4.5,0c0.7-0.3,1.3-0.7,1.8-1.2c0.5-0.5,0.9-1.1,1.2-1.8c0.9-2.1,0.4-4.6-1.2-6.2C284,5.2,283.4,4.8,282.7,4.5
	 M278.6,5.2c1.8-0.8,3.9-0.4,5.3,1c0.4,0.4,0.8,1,1,1.5c0.5,1.2,0.5,2.6,0,3.8c-0.2,0.6-0.6,1.1-1,1.5c-0.9,0.9-2.1,1.4-3.4,1.4
	c-0.7,0-1.3-0.1-1.9-0.4c-1.1-0.5-2.1-1.4-2.5-2.6c-0.5-1.2-0.5-2.6,0-3.8C276.5,6.6,277.4,5.7,278.6,5.2 M279.2,12.9V10h1.4
	l1.8,2.9h0.9l-1.9-2.9c0.2,0,0.4-0.1,0.6-0.2c0.2-0.1,0.4-0.2,0.5-0.4c0.2-0.2,0.3-0.3,0.4-0.5c0.1-0.2,0.1-0.5,0.1-0.7
	c0-0.5-0.2-1-0.5-1.3c-0.5-0.4-1-0.5-1.6-0.5h-2.5v6.5L279.2,12.9z M281,9.3h-0.7h-1.1V7.1h1.5c0.2,0,0.4,0,0.6,0
	c0.2,0,0.3,0.1,0.5,0.2c0.1,0.1,0.3,0.2,0.4,0.3c0.1,0.2,0.1,0.4,0.1,0.6c0,0.2,0,0.5-0.2,0.6c-0.1,0.2-0.3,0.3-0.4,0.3
	C281.4,9.3,281.2,9.3,281,9.3"/>
<path class="st2" d="M2.1,35.7c0,18.8,15.2,33.5,35.2,33.5s35.4-15,35.4-33.7v-0.2c0-18.7-15.2-33.5-35.2-33.5S2.1,16.8,2.1,35.5
	V35.7 M50.9,35.7c0,7.6-5.2,14.4-13.4,14.4S24,43.2,24,35.5v-0.2c0-7.6,5.2-14.4,13.4-14.4s13.6,6.9,13.6,14.6L50.9,35.7"/>
</svg>
