<?xml version="1.0" encoding="utf-8"?>
<!-- Generator: Adobe Illustrator 21.1.0, SVG Export Plug-In . SVG Version: 6.00 Build 0)  -->
<svg version="1.1" id="dad59e38-dde3-4636-b4af-0d4dc6846c92"
	 xmlns="http://www.w3.org/2000/svg" xmlns:xlink="http://www.w3.org/1999/xlink" x="0px" y="0px" viewBox="0 0 394.5 121"
	 style="enable-background:new 0 0 394.5 121;" xml:space="preserve">
<style type="text/css">
	.st0{fill:#FFFFFF;}
</style>
<title>omed-logo-tag-1</title>
<path class="st0" d="M54.1,102.4l-11-15.5h2.4l9.6,13.8l9.7-13.8H67l-11,15.5v10.2h-1.9V102.4z"/>
<path class="st0" d="M65.9,103.3L65.9,103.3c-0.1-5.4,4.2-9.8,9.5-9.9c0,0,0.1,0,0.1,0c5.3,0,9.6,4.3,9.6,9.6c0,0.1,0,0.1,0,0.2v0.1
	c0.1,5.3-4.2,9.7-9.5,9.8c0,0-0.1,0-0.1,0c-5.3,0-9.6-4.3-9.6-9.6C65.9,103.4,65.9,103.4,65.9,103.3z M83.2,103.3L83.2,103.3
	c0.1-4.4-3.3-8-7.6-8.2c0,0-0.1,0-0.1,0c-4.3,0-7.7,3.5-7.6,7.8c0,0.1,0,0.1,0,0.2v0.1c-0.1,4.3,3.3,8,7.6,8.1c0,0,0.1,0,0.1,0
	c4.3,0,7.7-3.5,7.6-7.8C83.2,103.4,83.2,103.4,83.2,103.3z"/>
<path class="st0" d="M90.3,105.3V93.9h1.8V105c0,3.8,2.2,6.4,5.9,6.4c3.5,0,6.5-2.8,6.5-6.3c0-0.1,0-0.2,0-0.3V93.9h1.8v18.7h-1.8
	v-3.5c-1.3,2.5-3.9,4-6.8,3.9C93.1,113,90.3,109.8,90.3,105.3z"/>
<path class="st0" d="M126,108.6v4h-1.8V85.8h1.8v12.3c1.6-2.5,4-4.6,7.7-4.6c4.5,0,9.1,3.6,9.1,9.7v0.1c0,6.1-4.6,9.8-9.1,9.8
	C130.5,113,127.6,111.3,126,108.6z M140.9,103.3L140.9,103.3c0-5-3.4-8.2-7.3-8.2c-4.3,0.1-7.7,3.7-7.6,8v0.1
	c-0.1,4.3,3.3,7.9,7.6,8c0,0,0,0,0,0C137.6,111.3,140.9,108.3,140.9,103.3L140.9,103.3z"/>
<path class="st0" d="M147.1,103.3L147.1,103.3c0-5.5,3.8-9.8,8.9-9.8c5.2,0,8.6,4.3,8.6,9.8c0,0.2,0,0.5,0,0.7h-15.6
	c0.3,4.7,3.7,7.4,7.3,7.4c2.5,0,4.8-1.1,6.4-2.9l1.2,1.1c-1.9,2.3-4.8,3.6-7.8,3.5C151.4,113,147.1,109.1,147.1,103.3z M162.7,102.3
	c-0.3-3.8-2.4-7.3-6.7-7.3c-3.7,0-6.6,3.1-6.9,7.3H162.7z"/>
<path class="st0" d="M170.2,85.8h1.8v26.8h-1.8L170.2,85.8z"/>
<path class="st0" d="M177.7,103.3L177.7,103.3c-0.1-5.4,4.2-9.8,9.5-9.9c0,0,0.1,0,0.1,0c5.3,0,9.6,4.3,9.6,9.6c0,0.1,0,0.1,0,0.2
	v0.1c0.1,5.3-4.2,9.7-9.5,9.8c0,0-0.1,0-0.1,0c-5.3,0-9.6-4.3-9.6-9.6C177.7,103.4,177.7,103.4,177.7,103.3z M195,103.3L195,103.3
	c0.1-4.4-3.3-8-7.6-8.2c0,0-0.1,0-0.1,0c-4.3,0-7.7,3.5-7.6,7.8c0,0.1,0,0.1,0,0.2v0.1c-0.1,4.3,3.3,8,7.6,8.1c0,0,0.1,0,0.1,0
	c4.3,0,7.7-3.5,7.7-7.8C195,103.4,195,103.4,195,103.3L195,103.3z"/>
<path class="st0" d="M202.4,93.9h1.8v3.5c1.3-2.5,3.9-4,6.8-3.9c4.7,0,7.5,3.2,7.5,7.7v11.5h-1.8v-11.1c0-3.8-2.2-6.4-5.9-6.4
	c-3.5,0-6.5,2.8-6.5,6.3c0,0.1,0,0.2,0,0.3v10.8h-1.8V93.9z"/>
<path class="st0" d="M224.5,115.7l1.1-1.5c2.2,1.7,4.8,2.6,7.6,2.6c4.3,0,7.3-2.5,7.3-7.3v-2.7c-1.7,2.7-4.6,4.3-7.8,4.3
	c-4.9,0.1-8.9-3.8-9-8.7c0,0,0,0,0-0.1v-0.1c0-4.9,4-8.9,8.9-8.9c0,0,0,0,0.1,0c3.1,0,6.1,1.6,7.8,4.2v-3.8h1.8v15.8
	c0.1,2.4-0.8,4.6-2.4,6.3c-1.8,1.7-4.3,2.6-6.8,2.5C230,118.6,227,117.5,224.5,115.7z M240.6,102.3L240.6,102.3
	c0-4.4-3.9-7.2-7.8-7.2c-3.8-0.2-7.1,2.8-7.2,6.6c0,0.2,0,0.3,0,0.5v0.1c0,3.9,3.1,7.1,7.1,7.2c0.1,0,0.1,0,0.2,0
	C236.7,109.5,240.6,106.6,240.6,102.3z"/>
<path class="st0" d="M248.3,109.5h2.4v3.1h-2.4V109.5z"/>
<path class="st0" d="M264.9,86.9h1.9v11.9h16.5V86.9h1.9v25.7h-1.9v-12h-16.5v12h-1.9V86.9z"/>
<path class="st0" d="M291.1,103.3L291.1,103.3c0-5.5,3.8-9.8,8.9-9.8c5.2,0,8.6,4.3,8.6,9.8c0,0.2,0,0.5,0,0.7h-15.6
	c0.3,4.7,3.7,7.4,7.3,7.4c2.5,0,4.8-1.1,6.4-2.9l1.2,1.1c-1.9,2.3-4.8,3.6-7.8,3.5C295.4,113,291.1,109.1,291.1,103.3z M306.7,102.3
	c-0.3-3.8-2.4-7.3-6.7-7.3c-3.7,0-6.6,3.1-6.9,7.3H306.7z"/>
<path class="st0" d="M313.9,93.9h1.8v5.3c1.3-3.4,4.6-5.6,8.3-5.6v2h-0.2c-4.3,0-8.1,3.3-8.1,9.4v7.7h-1.8L313.9,93.9z"/>
<path class="st0" d="M326.5,103.3L326.5,103.3c0-5.5,3.8-9.8,8.9-9.8c5.2,0,8.6,4.3,8.6,9.8c0,0.2,0,0.5,0,0.7h-15.6
	c0.3,4.7,3.7,7.4,7.3,7.4c2.5,0,4.8-1.1,6.4-2.9l1.2,1.1c-1.9,2.3-4.8,3.6-7.8,3.5C330.7,113,326.5,109.1,326.5,103.3z M342,102.3
	c-0.3-3.8-2.4-7.3-6.7-7.3c-3.7,0-6.6,3.1-6.9,7.3H342z"/>
<path class="st0" d="M348.3,109.5h2.4v3.1h-2.4V109.5z"/>
<path class="st0" d="M310,23.9l-10.5,2.3l-3.9-15.9l19.2-5.2h16.3V70H310V23.9z"/>
<path class="st0" d="M366.8,23.3h-29.4V5.5h52.9v16.2l-28,48.3h-23.4L366.8,23.3z"/>
<path class="st0" d="M77.4,5.7H100l13.8,22.7l13.9-22.7h22.5v64.7h-21.5v-32l-14.9,23h-0.4l-14.9-23v32H77.4V5.7z M214.3,70.3h24
	c26.1,0,39.3-13.6,39.3-32.7v-0.2c0-19.1-12.8-31.8-38.5-31.8h-24.7V70.3z M235.9,51.5v-27h3.6c9.9,0,16.3,4.1,16.3,13.4v0.2
	c0,9.3-6.4,13.4-16.3,13.4L235.9,51.5z M210,23.4V5.7h-55.1v64.7H210V52.6h-37.4v-7h31.9V30h-31.9v-6.6H210z M284,6.1
	c-1.4-0.6-3-0.6-4.5,0c-0.7,0.3-1.3,0.7-1.8,1.2c-0.5,0.5-0.9,1.1-1.2,1.8c-0.6,1.4-0.6,3,0,4.4c0.6,1.4,1.6,2.4,3,3
	c1.4,0.6,3,0.6,4.5,0c0.7-0.3,1.3-0.7,1.8-1.2c0.5-0.5,0.9-1.1,1.2-1.8c0.9-2.1,0.4-4.6-1.2-6.2C285.3,6.8,284.7,6.4,284,6.1
	 M279.9,6.9c1.8-0.8,3.9-0.4,5.3,1c0.4,0.4,0.8,1,1,1.5c0.5,1.2,0.5,2.6,0,3.8c-0.2,0.6-0.6,1.1-1,1.5c-0.9,0.9-2.1,1.4-3.4,1.4
	c-0.7,0-1.3-0.1-1.9-0.4c-1.1-0.5-2.1-1.4-2.5-2.6c-0.5-1.2-0.5-2.6,0-3.8C277.8,8.3,278.7,7.4,279.9,6.9 M280.5,14.6v-2.9h1.4
	l1.8,2.9h0.9l-1.9-2.9c0.2,0,0.4-0.1,0.6-0.2c0.2-0.1,0.4-0.2,0.5-0.4c0.2-0.2,0.3-0.3,0.4-0.5c0.1-0.2,0.1-0.5,0.1-0.7
	c0-0.5-0.2-1-0.5-1.3c-0.5-0.4-1-0.5-1.6-0.5h-2.5v6.5L280.5,14.6z M282.3,11h-0.7h-1.1V8.8h1.5c0.2,0,0.4,0,0.6,0
	c0.2,0,0.3,0.1,0.5,0.2c0.1,0.1,0.3,0.2,0.4,0.3c0.1,0.2,0.1,0.4,0.1,0.6c0,0.2,0,0.5-0.2,0.6c-0.1,0.2-0.3,0.3-0.4,0.3
	C282.7,10.9,282.5,11,282.3,11"/>
<path class="st0" d="M3.5,37.4c0,18.8,15.2,33.5,35.2,33.5s35.4-15,35.4-33.7V37c0-18.8-15.2-33.5-35.2-33.5S3.5,18.4,3.5,37.2V37.4
	 M52.2,37.4c0,7.6-5.2,14.4-13.4,14.4s-13.6-6.9-13.6-14.6V37c0-7.6,5.2-14.4,13.4-14.4s13.6,6.9,13.6,14.6L52.2,37.4"/>
</svg>
