<svg id="07932193-1067-453f-8eaf-a5cdaf67bace" data-name="Layer 1" xmlns="http://www.w3.org/2000/svg" viewBox="0 0 400.48 134.99"><title>omed-logo-tag-2</title><path d="M58.06,108.43l-11-15.53h2.39l9.62,13.8,9.66-13.8H71L60,108.39V118.6H58.06Z" fill="#8a8c8e"/><path d="M69.89,109.31v-.07a9.67,9.67,0,0,1,9.66-9.8,9.57,9.57,0,0,1,9.58,9.73v.07a9.67,9.67,0,0,1-9.66,9.8A9.57,9.57,0,0,1,69.89,109.31Zm17.29,0v-.07a7.85,7.85,0,0,0-7.71-8.11,7.72,7.72,0,0,0-7.64,8v.07a7.85,7.85,0,0,0,7.71,8.11A7.72,7.72,0,0,0,87.18,109.31Z" fill="#8a8c8e"/><path d="M94.31,111.33V99.87h1.8V111c0,3.85,2.17,6.39,5.95,6.39a6.42,6.42,0,0,0,6.5-6.68V99.87h1.8V118.6h-1.8v-3.49A7.33,7.33,0,0,1,101.8,119C97.06,119,94.31,115.81,94.31,111.33Z" fill="#8a8c8e"/><path d="M130,114.56v4h-1.8V91.8H130v12.26c1.62-2.46,4-4.63,7.71-4.63,4.52,0,9.1,3.63,9.1,9.73v.07c0,6.09-4.59,9.8-9.1,9.8A9,9,0,0,1,130,114.56Zm14.87-5.25v-.07c0-4.92-3.41-8.08-7.34-8.08a7.84,7.84,0,0,0-7.64,8v.07a7.82,7.82,0,0,0,7.64,8C141.6,117.31,144.86,114.34,144.86,109.31Z" fill="#8a8c8e"/><path d="M151.15,109.27v-.07c0-5.43,3.82-9.77,8.88-9.77,5.25,0,8.59,4.26,8.59,9.8a4.62,4.62,0,0,1,0,.73H153.06c.33,4.66,3.67,7.38,7.34,7.38a8.41,8.41,0,0,0,6.42-2.94l1.25,1.1a9.84,9.84,0,0,1-7.75,3.52C155.4,119,151.15,115.11,151.15,109.27Zm15.53-.92c-.26-3.78-2.42-7.27-6.72-7.27-3.71,0-6.57,3.12-6.9,7.27Z" fill="#8a8c8e"/><path d="M174.24,91.8H176v26.8h-1.8Z" fill="#8a8c8e"/><path d="M181.7,109.31v-.07a9.67,9.67,0,0,1,9.66-9.8,9.57,9.57,0,0,1,9.58,9.73v.07a9.67,9.67,0,0,1-9.66,9.8A9.57,9.57,0,0,1,181.7,109.31Zm17.29,0v-.07a7.85,7.85,0,0,0-7.71-8.11,7.73,7.73,0,0,0-7.64,8v.07a7.85,7.85,0,0,0,7.71,8.11A7.73,7.73,0,0,0,199,109.31Z" fill="#8a8c8e"/><path d="M206.37,99.87h1.8v3.49a7.33,7.33,0,0,1,6.76-3.93c4.74,0,7.49,3.23,7.49,7.71V118.6h-1.8V107.47c0-3.85-2.17-6.39-5.95-6.39a6.42,6.42,0,0,0-6.5,6.68V118.6h-1.8Z" fill="#8a8c8e"/><path d="M228.51,121.68l1.07-1.47a12.23,12.23,0,0,0,7.56,2.64c4.29,0,7.34-2.46,7.34-7.27v-2.72a9.31,9.31,0,0,1-7.82,4.33,8.87,8.87,0,0,1-9-8.81v-.07a8.91,8.91,0,0,1,9-8.88,9.31,9.31,0,0,1,7.82,4.19V99.87h1.8v15.82a8.67,8.67,0,0,1-2.39,6.35,9.48,9.48,0,0,1-6.79,2.5A14.14,14.14,0,0,1,228.51,121.68Zm16.08-13.33v-.07c0-4.33-3.85-7.12-7.75-7.12a6.92,6.92,0,0,0-7.23,7.09v.07a7.11,7.11,0,0,0,7.23,7.16C240.74,115.48,244.59,112.61,244.59,108.35Z" fill="#8a8c8e"/><path d="M252.34,115.48h2.42v3.12h-2.42Z" fill="#8a8c8e"/><path d="M268.94,92.9h1.91v11.9h16.45V92.9h1.91v25.7h-1.91v-12H270.85v12h-1.91Z" fill="#8a8c8e"/><path d="M295.15,109.27v-.07c0-5.43,3.82-9.77,8.89-9.77,5.25,0,8.59,4.26,8.59,9.8a4.62,4.62,0,0,1,0,.73H297.06c.33,4.66,3.67,7.38,7.34,7.38a8.41,8.41,0,0,0,6.42-2.94l1.25,1.1a9.84,9.84,0,0,1-7.75,3.52C299.41,119,295.15,115.11,295.15,109.27Zm15.53-.92c-.26-3.78-2.42-7.27-6.72-7.27-3.71,0-6.57,3.12-6.9,7.27Z" fill="#8a8c8e"/><path d="M317.88,99.87h1.8v5.32a8.85,8.85,0,0,1,8.3-5.62v2h-.18c-4.33,0-8.11,3.27-8.11,9.36v7.67h-1.8Z" fill="#8a8c8e"/><path d="M330.48,109.27v-.07c0-5.43,3.82-9.77,8.88-9.77,5.25,0,8.59,4.26,8.59,9.8a4.62,4.62,0,0,1,0,.73H332.39c.33,4.66,3.67,7.38,7.34,7.38a8.41,8.41,0,0,0,6.42-2.94l1.25,1.1a9.84,9.84,0,0,1-7.75,3.52C334.74,119,330.48,115.11,330.48,109.27Zm15.53-.92c-.26-3.78-2.42-7.27-6.72-7.27-3.71,0-6.57,3.12-6.9,7.27Z" fill="#8a8c8e"/><path d="M352.33,115.48h2.42v3.12h-2.42Z" fill="#8a8c8e"/><path d="M314,29.94l-10.5,2.3-3.87-15.93,19.24-5.25h16.3V76H314Z" fill="#6d6e71"/><path d="M370.83,29.29H341.45V11.52h52.86V27.72L366.32,76H342.93Z" fill="#6d6e71"/><path d="M81.44,11.68H104L117.84,34.4l13.85-22.72h22.54V76.34H132.71V44.29l-14.87,23h-.37l-14.87-23V76.34H81.44ZM218.26,76.34h24c26.14,0,39.26-13.58,39.26-32.7v-.19c0-19.12-12.84-31.78-38.52-31.78H218.26ZM239.87,57.5v-27h3.6c9.88,0,16.26,4.07,16.26,13.4v.19c0,9.33-6.37,13.39-16.26,13.39ZM214,29.42V11.68H158.85V76.35H214V58.61h-37.4v-7h31.88V36H176.59V29.42Zm74-17.27a6,6,0,0,0-4.46,0,5.42,5.42,0,0,0-1.79,1.2,5.6,5.6,0,0,0-1.19,1.8,5.93,5.93,0,0,0,0,4.44,5.5,5.5,0,0,0,3,3,6,6,0,0,0,4.46,0,5.54,5.54,0,0,0,1.79-1.19A5.46,5.46,0,0,0,291,19.59a5.76,5.76,0,0,0-1.19-6.24,5.47,5.47,0,0,0-1.79-1.2m-4.13.75a4.78,4.78,0,0,1,5.3,1,4.75,4.75,0,0,1,1,1.53,5.13,5.13,0,0,1,0,3.8,4.77,4.77,0,0,1-1,1.53,4.73,4.73,0,0,1-3.4,1.41,4.69,4.69,0,0,1-1.9-.38,4.63,4.63,0,0,1-2.51-2.56,5.19,5.19,0,0,1,0-3.8,4.66,4.66,0,0,1,2.51-2.56m.66,7.73v-2.9h1.35l1.84,2.9h.94l-1.94-2.9a2.86,2.86,0,0,0,.63-.19,1.67,1.67,0,0,0,.52-.35,1.54,1.54,0,0,0,.36-.54,2,2,0,0,0,.13-.74,1.71,1.71,0,0,0-.51-1.34,2.33,2.33,0,0,0-1.61-.47h-2.5v6.53Zm1.78-3.6-.72,0h-1.06V14.78H286a3.79,3.79,0,0,1,.58,0,1.47,1.47,0,0,1,.49.18,1,1,0,0,1,.35.34,1.07,1.07,0,0,1,.13.56,1.11,1.11,0,0,1-.17.65.94.94,0,0,1-.44.34,2,2,0,0,1-.63.13" fill="#6d6e71"/><path d="M7.48,43.37c0,18.75,15.24,33.53,35.19,33.53s35.38-15,35.38-33.71V43c0-18.75-15.24-33.52-35.19-33.52S7.48,24.43,7.48,43.19v.18m48.77,0c0,7.57-5.17,14.41-13.39,14.41S29.29,50.85,29.29,43.19V43c0-7.57,5.17-14.4,13.39-14.4s13.58,6.92,13.58,14.59v.18" fill="#d53847"/></svg>