<svg id="b0dcdf63-cd1d-49ae-b0c8-97d944895788" data-name="dad59e38-dde3-4636-b4af-0d4dc6846c92" xmlns="http://www.w3.org/2000/svg" viewBox="0 0 400.48 134.99"><title>omed-logo-residents-1</title><path d="M314,29.94l-10.5,2.3-3.87-15.93,19.24-5.25h16.3V76H314Z" fill="#fff"/><path d="M370.83,29.29H341.45V11.52h52.86v16.2L366.32,76H342.93Z" fill="#fff"/><path d="M81.44,11.68H104L117.84,34.4l13.85-22.72h22.54V76.34H132.71v-32l-14.87,23h-.37l-14.87-23v32H81.44ZM218.26,76.34h24c26.14,0,39.26-13.58,39.26-32.7v-.19c0-19.12-12.84-31.78-38.52-31.78H218.26ZM239.87,57.5v-27h3.6c9.88,0,16.26,4.07,16.26,13.4v.19c0,9.33-6.37,13.39-16.26,13.39ZM214,29.42V11.68H158.85V76.35H214V58.61H176.6v-7h31.88V36H176.59V29.42Zm74-17.27a6,6,0,0,0-4.46,0,5.42,5.42,0,0,0-1.79,1.2,5.6,5.6,0,0,0-1.19,1.8,5.93,5.93,0,0,0,0,4.44,5.5,5.5,0,0,0,3,3,6,6,0,0,0,4.46,0,5.54,5.54,0,0,0,1.79-1.19A5.46,5.46,0,0,0,291,19.59a5.76,5.76,0,0,0-1.19-6.24,5.47,5.47,0,0,0-1.79-1.2m-4.13.75a4.71,4.71,0,0,1,6.3,2.53,5.13,5.13,0,0,1,0,3.8,4.69,4.69,0,0,1-4.4,2.94,4.69,4.69,0,0,1-1.9-.38,4.63,4.63,0,0,1-2.51-2.56,5.19,5.19,0,0,1,0-3.8,4.66,4.66,0,0,1,2.51-2.56m.66,7.73V17.7h1.35l1.84,2.9h.94l-1.94-2.9a2.86,2.86,0,0,0,.63-.19,1.67,1.67,0,0,0,.52-.35,1.54,1.54,0,0,0,.36-.54,2,2,0,0,0,.13-.74,1.71,1.71,0,0,0-.51-1.34,2.33,2.33,0,0,0-1.61-.47h-2.5V20.6Zm1.78-3.6h-1.78V14.78H286a3.79,3.79,0,0,1,.58,0,1.47,1.47,0,0,1,.49.18,1,1,0,0,1,.35.34,1.07,1.07,0,0,1,.13.56,1.11,1.11,0,0,1-.17.65.94.94,0,0,1-.44.34,2,2,0,0,1-.63.13" fill="#fff"/><path d="M7.48,43.37c0,18.75,15.24,33.53,35.19,33.53s35.38-15,35.38-33.71V43c0-18.75-15.24-33.52-35.19-33.52S7.48,24.43,7.48,43.19v.18m48.77,0c0,7.57-5.17,14.41-13.39,14.41S29.29,50.85,29.29,43.19V43c0-7.57,5.17-14.4,13.39-14.4s13.58,6.92,13.58,14.59v.18" fill="#fff"/><path d="M7.76,98.72h8.39a7.87,7.87,0,0,1,5.62,2,5.26,5.26,0,0,1,1.51,3.71v.06c0,3.34-2.48,5.25-5.85,5.71L24,118.69H22.14l-6.36-8.27H9.24v8.27H7.76ZM16,109.08c3.34,0,5.82-1.68,5.82-4.57v-.06c0-2.68-2.11-4.37-5.74-4.37H9.24v9Z" fill="#fff"/><path d="M26.79,111.44v-.06c0-4.22,3-7.59,6.91-7.59s6.68,3.31,6.68,7.62a3.61,3.61,0,0,1,0,.57H28.27A5.77,5.77,0,0,0,34,117.72a6.54,6.54,0,0,0,5-2.28l1,.86a7.65,7.65,0,0,1-6,2.74A7.23,7.23,0,0,1,26.79,111.44Zm12.07-.71c-.2-2.94-1.88-5.65-5.22-5.65-2.88,0-5.11,2.42-5.36,5.65Z" fill="#fff"/><path d="M43.19,116.87l.83-1.11a8.53,8.53,0,0,0,5.22,1.91c2,0,3.51-1.08,3.51-2.77v-.06c0-1.71-1.83-2.34-3.85-2.91-2.37-.68-5-1.4-5-4v-.06c0-2.34,2-4,4.79-4a9.83,9.83,0,0,1,5.16,1.6l-.74,1.17a8.36,8.36,0,0,0-4.48-1.46c-2,0-3.31,1.08-3.31,2.54v.06c0,1.63,2,2.23,4.05,2.83,2.34.66,4.79,1.51,4.79,4.08v.06c0,2.6-2.23,4.25-5,4.25A10,10,0,0,1,43.19,116.87Z" fill="#fff"/><path d="M58.66,98.43H60.4v1.91H58.66Zm.17,5.71h1.4v14.55h-1.4Z" fill="#fff"/><path d="M64.79,111.47v-.06a7.28,7.28,0,0,1,7.08-7.62,7,7,0,0,1,6,3.48V97.86h1.4v20.83h-1.4v-3.25a7,7,0,0,1-6,3.6A7.23,7.23,0,0,1,64.79,111.47Zm13.15,0v-.06A6.08,6.08,0,0,0,72,105.14c-3.17,0-5.71,2.31-5.71,6.22v.06c0,3.82,2.65,6.28,5.71,6.28A6.09,6.09,0,0,0,77.94,111.44Z" fill="#fff"/><path d="M83.56,111.44v-.06c0-4.22,3-7.59,6.91-7.59s6.68,3.31,6.68,7.62a3.61,3.61,0,0,1,0,.57H85a5.77,5.77,0,0,0,5.71,5.74,6.54,6.54,0,0,0,5-2.28l1,.86a7.65,7.65,0,0,1-6,2.74A7.23,7.23,0,0,1,83.56,111.44Zm12.07-.71c-.2-2.94-1.88-5.65-5.22-5.65-2.88,0-5.11,2.42-5.36,5.65Z" fill="#fff"/><path d="M101.23,104.14h1.4v2.71a5.7,5.7,0,0,1,5.25-3.05c3.68,0,5.82,2.51,5.82,6v8.9h-1.4V110c0-3-1.68-5-4.62-5a5,5,0,0,0-5.05,5.19v8.42h-1.4Z" fill="#fff"/><path d="M119.48,115v-9.53h-2.11v-1.28h2.11V99.49h1.4v4.65H126v1.28h-5.11v9.39c0,2.08,1.23,2.83,2.91,2.83a4.87,4.87,0,0,0,2.14-.51v1.31a5.34,5.34,0,0,1-2.37.51C121.31,118.95,119.48,117.72,119.48,115Z" fill="#fff"/><path d="M128.87,116.87l.83-1.11a8.53,8.53,0,0,0,5.22,1.91c2,0,3.51-1.08,3.51-2.77v-.06c0-1.71-1.83-2.34-3.85-2.91-2.37-.68-5-1.4-5-4v-.06c0-2.34,2-4,4.79-4a9.83,9.83,0,0,1,5.16,1.6l-.74,1.17a8.36,8.36,0,0,0-4.48-1.46c-2,0-3.31,1.08-3.31,2.54v.06c0,1.63,2,2.23,4.05,2.83,2.34.66,4.79,1.51,4.79,4.08v.06c0,2.6-2.23,4.25-5,4.25A10,10,0,0,1,128.87,116.87Z" fill="#fff"/><path d="M143.17,121c1.23-.63,1.68-1.26,1.6-2.34H144v-2.43h1.88v2.11a3.15,3.15,0,0,1-2.37,3.37Z" fill="#fff"/><path d="M170.81,104.14h1.54L166,119.21c-1.28,3.05-2.77,4.14-4.85,4.14a6.55,6.55,0,0,1-2.88-.63l.48-1.23a5.07,5.07,0,0,0,2.48.54c1.51,0,2.51-.88,3.6-3.42l-7-14.47h1.63l6,13Z" fill="#fff"/><path d="M174.35,111.47v-.06a7.52,7.52,0,0,1,7.5-7.62,7.44,7.44,0,0,1,7.45,7.56v.06a7.52,7.52,0,0,1-7.5,7.62A7.44,7.44,0,0,1,174.35,111.47Zm13.44,0v-.06a6.1,6.1,0,0,0-6-6.31,6,6,0,0,0-5.94,6.25v.06a6.1,6.1,0,0,0,6,6.31A6,6,0,0,0,187.79,111.47Z" fill="#fff"/><path d="M193.32,113v-8.9h1.4v8.65c0,3,1.68,5,4.62,5a5,5,0,0,0,5.05-5.19v-8.42h1.4v14.55h-1.4V116a5.7,5.7,0,0,1-5.25,3.05C195.46,119,193.32,116.52,193.32,113Z" fill="#fff"/><path d="M221.06,115.55v3.14h-1.4V97.86h1.4v9.53a7,7,0,0,1,6-3.59,7.23,7.23,0,0,1,7.08,7.56v.06A7.28,7.28,0,0,1,227,119,7,7,0,0,1,221.06,115.55Zm11.56-4.08v-.06c0-3.82-2.65-6.28-5.71-6.28a6.1,6.1,0,0,0-5.94,6.25v.06a6.08,6.08,0,0,0,5.94,6.25C230.07,117.69,232.61,115.38,232.61,111.47Z" fill="#fff"/><path d="M237.49,111.44v-.06c0-4.22,3-7.59,6.91-7.59s6.68,3.31,6.68,7.62a3.67,3.67,0,0,1,0,.57H239a5.77,5.77,0,0,0,5.71,5.74,6.54,6.54,0,0,0,5-2.28l1,.86a7.65,7.65,0,0,1-6,2.74A7.23,7.23,0,0,1,237.49,111.44Zm12.07-.71c-.2-2.94-1.88-5.65-5.22-5.65-2.88,0-5.11,2.42-5.36,5.65Z" fill="#fff"/><path d="M255.35,97.86h1.4v20.83h-1.4Z" fill="#fff"/><path d="M261.26,111.47v-.06a7.52,7.52,0,0,1,7.5-7.62,7.44,7.44,0,0,1,7.45,7.56v.06a7.52,7.52,0,0,1-7.5,7.62A7.44,7.44,0,0,1,261.26,111.47Zm13.44,0v-.06a6.1,6.1,0,0,0-6-6.31,6,6,0,0,0-5.94,6.25v.06a6.1,6.1,0,0,0,6,6.31A6,6,0,0,0,274.7,111.47Z" fill="#fff"/><path d="M280.51,104.14h1.4v2.71a5.7,5.7,0,0,1,5.25-3.05c3.68,0,5.82,2.51,5.82,6v8.9h-1.4V110c0-3-1.68-5-4.62-5a5,5,0,0,0-5.05,5.19v8.42h-1.4Z" fill="#fff"/><path d="M297.72,121.09l.83-1.14a9.51,9.51,0,0,0,5.88,2.05c3.34,0,5.71-1.91,5.71-5.65v-2.11a7.24,7.24,0,0,1-6.08,3.37,6.89,6.89,0,0,1-7-6.85v-.06a6.92,6.92,0,0,1,7-6.91,7.23,7.23,0,0,1,6.08,3.25v-2.91h1.4v12.3a6.74,6.74,0,0,1-1.85,4.94,7.37,7.37,0,0,1-5.28,1.94A11,11,0,0,1,297.72,121.09Zm12.5-10.36v-.06c0-3.37-3-5.54-6-5.54a5.38,5.38,0,0,0-5.62,5.51v.06a5.53,5.53,0,0,0,5.62,5.56C307.22,116.27,310.22,114,310.22,110.73Z" fill="#fff"/><path d="M316.52,116.27h1.88v2.43h-1.88Z" fill="#fff"/><path d="M332.27,98.72h1.48V108h12.78V98.72H348v20h-1.48v-9.36H333.75v9.36h-1.48Z" fill="#fff"/><path d="M352.64,111.44v-.06c0-4.22,3-7.59,6.91-7.59s6.68,3.31,6.68,7.62a3.67,3.67,0,0,1,0,.57H354.12a5.77,5.77,0,0,0,5.71,5.74,6.54,6.54,0,0,0,5-2.28l1,.86a7.65,7.65,0,0,1-6,2.74A7.23,7.23,0,0,1,352.64,111.44Zm12.07-.71c-.2-2.94-1.88-5.65-5.22-5.65-2.88,0-5.11,2.42-5.36,5.65Z" fill="#fff"/><path d="M370.3,104.14h1.4v4.14a6.88,6.88,0,0,1,6.45-4.37v1.54H378c-3.37,0-6.31,2.54-6.31,7.28v6h-1.4Z" fill="#fff"/><path d="M380,111.44v-.06c0-4.22,3-7.59,6.91-7.59s6.68,3.31,6.68,7.62a3.67,3.67,0,0,1,0,.57H381.49a5.77,5.77,0,0,0,5.71,5.74,6.54,6.54,0,0,0,5-2.28l1,.86a7.65,7.65,0,0,1-6,2.74A7.23,7.23,0,0,1,380,111.44Zm12.07-.71c-.2-2.94-1.88-5.65-5.22-5.65-2.88,0-5.11,2.42-5.36,5.65Z" fill="#fff"/></svg>